<svg xmlns="http://www.w3.org/2000/svg" xmlns:xlink="http://www.w3.org/1999/xlink" viewBox="0 0 480.25558 99.57586"><defs><style>.a{fill:none;}.b{isolation:isolate;}.c{fill:#a9263a;}.d{fill:#704994;}.e{fill:#6890cb;}.f{fill:#8bb852;}.g{fill:#f5e919;}.h{fill:#eeb331;}.i{clip-path:url(#a);}.j{opacity:0.13;fill:url(#b);}.j,.k,.l,.m{mix-blend-mode:soft-light;}.k{opacity:0.18;fill:url(#c);}.l{opacity:0.3;fill:url(#d);}.m{opacity:0.25;fill:url(#e);}.n{fill:#fff;}</style><clipPath id="a"><path class="a" d="M85.54449,2.32992H30.167L2.47819,50.28845,30.167,98.24661H85.54449l27.68877-47.95816ZM71.7001,74.2677H44.01134L30.167,50.28845,44.01134,26.30918H71.7001L85.54449,50.28845Z"/></clipPath><linearGradient id="b" x1="353.39259" y1="638.19856" x2="463.59515" y2="638.19856" gradientTransform="matrix(-0.00003, -1.02274, 1.43357, -0.00002, -844.41543, 460.82249)" gradientUnits="userSpaceOnUse"><stop offset="0" stop-color="#010101"/><stop offset="1" stop-color="#fff"/></linearGradient><linearGradient id="c" x1="138.66594" y1="637.89693" x2="138.66594" y2="589.93701" gradientTransform="matrix(-1.03622, 0.00002, 0.00004, -1.82111, 171.54736, 1150.62781)" xlink:href="#b"/><linearGradient id="d" x1="138.29518" y1="615.67952" x2="138.29518" y2="567.71496" gradientTransform="matrix(-1.03622, 0.00001, 0.00001, -0.43718, 156.42475, 282.73035)" xlink:href="#b"/><linearGradient id="e" x1="57.85567" y1="37.89304" x2="57.85567" y2="2.32992" gradientTransform="matrix(1, 0, 0, 1, 0, 0)" xlink:href="#b"/></defs><g class="b"><polygon class="c" points="2.478 50.288 30.167 50.288 44.011 74.268 30.167 98.247 2.478 50.288"/><polygon class="d" points="30.167 98.247 44.011 74.267 71.7 74.267 85.544 98.247 30.167 98.247"/><polygon class="e" points="85.544 98.247 71.7 74.267 85.544 50.288 113.233 50.288 85.544 98.247"/><polygon class="f" points="113.233 50.288 85.544 50.288 71.7 26.309 85.544 2.33 113.233 50.288"/><polygon class="g" points="85.544 2.33 71.7 26.309 44.011 26.309 30.167 2.33 85.544 2.33"/><polygon class="h" points="30.167 2.33 44.011 26.309 30.167 50.288 2.478 50.288 30.167 2.33"/><g class="i"><rect class="j" x="36.09674" y="-13.32339" width="68.75327" height="112.7078" transform="translate(-12.07361 41.0018) rotate(-30.00008)"/><rect class="k" x="-29.21366" y="-11.04828" width="114.19666" height="87.33818" transform="translate(-14.30816 40.45899) rotate(-59.99967)"/><rect class="l" x="-43.97066" y="13.572" width="114.19653" height="20.96753" transform="translate(-14.2691 23.39667) rotate(-59.9999)"/><polygon class="m" points="98.92 2.33 78.388 37.893 37.323 37.893 16.791 2.33 98.92 2.33"/></g><path class="n" d="M167.51039,72.93874a.98462.98462,0,0,1-.21722.63382,1.59261,1.59261,0,0,1-.72449.45282,6.16377,6.16377,0,0,1-1.39453.27166q-.88826.09-2.19149.09068-1.34064,0-2.22772-.09068a6.149,6.149,0,0,1-1.39453-.27166,1.58757,1.58757,0,0,1-.72449-.45282.98376.98376,0,0,1-.2174-.63382V54.50138a15.55708,15.55708,0,0,0-.34413-3.69472,7.29664,7.29664,0,0,0-.99614-2.30019,4.44159,4.44159,0,0,0-1.68422-1.485,5.2494,5.2494,0,0,0-2.40889-.52529,6.03652,6.03652,0,0,0-3.51355,1.26781,18.99177,18.99177,0,0,0-3.69472,3.69472V72.93874a.98376.98376,0,0,1-.2174.63382,1.59866,1.59866,0,0,1-.74252.45282,6.45243,6.45243,0,0,1-1.39453.27166q-.86959.09-2.20969.09068-1.34037,0-2.20952-.09068a6.44769,6.44769,0,0,1-1.39471-.27166,1.59569,1.59569,0,0,1-.74251-.45282.98356.98356,0,0,1-.21722-.63382V25.306a1.06028,1.06028,0,0,1,.21722-.652,1.62525,1.62525,0,0,1,.74251-.48906,6.2325,6.2325,0,0,1,1.39471-.30789,22.51228,22.51228,0,0,1,4.41921,0,6.23755,6.23755,0,0,1,1.39453.30789,1.62833,1.62833,0,0,1,.74252.48906,1.06052,1.06052,0,0,1,.2174.652V43.16376a17.44172,17.44172,0,0,1,4.79938-3.45929,11.89981,11.89981,0,0,1,5.08944-1.14108,12.78809,12.78809,0,0,1,5.5601,1.08664,9.66983,9.66983,0,0,1,3.65849,2.97023,12.17512,12.17512,0,0,1,2.01032,4.40118,26.05734,26.05734,0,0,1,.61579,6.10343Z"/><path class="n" d="M205.61507,55.84165a3.51537,3.51537,0,0,1-.74251,2.46315,2.66052,2.66052,0,0,1-2.04674.797H183.15706a13.42925,13.42925,0,0,0,.48888,3.749,7.14733,7.14733,0,0,0,1.55768,2.86153,6.77719,6.77719,0,0,0,2.75283,1.7931,11.78242,11.78242,0,0,0,4.03885.61579,22.68771,22.68771,0,0,0,4.2018-.34413,27.81539,27.81539,0,0,0,3.13338-.76072q1.32171-.41586,2.19148-.76072a4.07308,4.07308,0,0,1,1.41256-.34412,1.06525,1.06525,0,0,1,.54332.1269.946.946,0,0,1,.36234.45283,3.03747,3.03747,0,0,1,.19919.92368q.05435.59759.05426,1.50323,0,.79715-.03623,1.3583a8.61544,8.61544,0,0,1-.10852.95992,2.31819,2.31819,0,0,1-.2174.67,2.51571,2.51571,0,0,1-.38036.5253,4.40638,4.40638,0,0,1-1.28584.68825,20.34864,20.34864,0,0,1-2.68054.85121,36.87371,36.87371,0,0,1-3.731.72449,31.07776,31.07776,0,0,1-4.49167.30789,23.777,23.777,0,0,1-7.5524-1.08682,13.44225,13.44225,0,0,1-5.41517-3.29615,13.70705,13.70705,0,0,1-3.24208-5.57831,26.191,26.191,0,0,1-1.06843-7.89653,25.09189,25.09189,0,0,1,1.12287-7.7698,16.28675,16.28675,0,0,1,3.25992-5.86818A14.0216,14.0216,0,0,1,183.465,39.8312a17.884,17.884,0,0,1,6.90038-1.26781,18.07,18.07,0,0,1,6.93661,1.19534,12.51353,12.51353,0,0,1,4.7271,3.31436,13.3736,13.3736,0,0,1,2.7166,5.01679,21.85383,21.85383,0,0,1,.86942,6.3028Zm-8.83841-2.60808a9.37258,9.37258,0,0,0-1.53947-6.03114,5.95677,5.95677,0,0,0-5.08925-2.19131,6.60726,6.60726,0,0,0-3.0245.65184,6.19068,6.19068,0,0,0-2.13722,1.75687,8.01524,8.01524,0,0,0-1.304,2.60808,12.96531,12.96531,0,0,0-.52512,3.20566Z"/><path class="n" d="M240.39945,72.28672a2.2817,2.2817,0,0,1,.27166,1.01418.79324.79324,0,0,1-.5253.652,4.5294,4.5294,0,0,1-1.55749.34412q-1.051.09-2.78925.09068-1.63,0-2.6261-.05444a7.27205,7.27205,0,0,1-1.5575-.21722,2.22089,2.22089,0,0,1-.83318-.39857,1.51791,1.51791,0,0,1-.4166-.59758L224.389,61.63718l-5.9767,11.48273a1.62644,1.62644,0,0,1-.39856.59758,2.02628,2.02628,0,0,1-.77875.39857,6.443,6.443,0,0,1-1.467.21722q-.94233.05435-2.46315.05444-1.59426,0-2.53561-.09068a3.52441,3.52441,0,0,1-1.37651-.34412.78967.78967,0,0,1-.45264-.652,2.09756,2.09756,0,0,1,.30789-1.01418L218.19489,56.385,209.936,41.46116a2.83325,2.83325,0,0,1-.34394-1.10467.74031.74031,0,0,1,.45264-.70646,4.31448,4.31448,0,0,1,1.50324-.36215q1.03238-.10871,2.80727-.1087,1.59345,0,2.55382.05426a11.36375,11.36375,0,0,1,1.50323.16314,1.635,1.635,0,0,1,.79678.34412,2.08682,2.08682,0,0,1,.4348.59758l5.7593,10.79448,5.72324-10.79448a1.41121,1.41121,0,0,1,.32592-.50708,1.65806,1.65806,0,0,1,.68826-.36216,6.567,6.567,0,0,1,1.286-.2174q.815-.0722,2.22772-.07246,1.59345,0,2.55364.07246a3.277,3.277,0,0,1,1.37651.32592.75088.75088,0,0,1,.39838.70646,2.88111,2.88111,0,0,1-.41659,1.17714L231.5248,56.13134Z"/><path class="n" d="M275.73093,56.56614a28.63709,28.63709,0,0,1-.92368,7.57042,16.56179,16.56179,0,0,1-2.7166,5.72325,12.22379,12.22379,0,0,1-4.43723,3.64046,13.67149,13.67149,0,0,1-6.04917,1.28583,11.5003,11.5003,0,0,1-2.71678-.30789,10.43688,10.43688,0,0,1-2.48135-.95991,15.78639,15.78639,0,0,1-2.42692-1.63,28.9755,28.9755,0,0,1-2.55364-2.35445V86.44982a.76039.76039,0,0,1-.1087.39838.87.87,0,0,1-.34412.3079,1.933,1.933,0,0,1-.652.18116,8.54824,8.54824,0,0,1-1.06844.05426,8.17766,8.17766,0,0,1-1.03238-.05426,2.1359,2.1359,0,0,1-.67022-.18116.72835.72835,0,0,1-.34413-.3079.87881.87881,0,0,1-.09049-.39838V40.66438a.96516.96516,0,0,1,.09049-.4348.647.647,0,0,1,.3261-.28968,2.25084,2.25084,0,0,1,.61579-.163,6.6634,6.6634,0,0,1,.92368-.05444,6.266,6.266,0,0,1,.90547.05444,2.52636,2.52636,0,0,1,.61579.163.74985.74985,0,0,1,.36233.28968.83161.83161,0,0,1,.1087.4348v4.74513a37.9661,37.9661,0,0,1,2.89777-2.69857,17.889,17.889,0,0,1,2.75283-1.9018,11.69467,11.69467,0,0,1,2.82548-1.12288,12.67843,12.67843,0,0,1,3.07893-.36215,12.51014,12.51014,0,0,1,6.04917,1.3583,11.35787,11.35787,0,0,1,4.07508,3.71293,16.15748,16.15748,0,0,1,2.282,5.48764A30.34158,30.34158,0,0,1,275.73093,56.56614Zm-4.52773.68825a31.59668,31.59668,0,0,0-.43462-5.30665,15.46638,15.46638,0,0,0-1.46718-4.54594,8.64675,8.64675,0,0,0-2.75283-3.18763A7.4105,7.4105,0,0,0,262.22,43.01883a9.14548,9.14548,0,0,0-2.55382.36215,9.89921,9.89921,0,0,0-2.55364,1.19534,19.08,19.08,0,0,0-2.71678,2.15526,30.66184,30.66184,0,0,0-2.97024,3.27812V64.2815a27.856,27.856,0,0,0,5.198,5.053,8.8575,8.8575,0,0,0,5.19795,1.75686,7.47247,7.47247,0,0,0,4.29248-1.21354,9.37659,9.37659,0,0,0,2.91579-3.18746,15.41017,15.41017,0,0,0,1.64817-4.45544A24.00289,24.00289,0,0,0,271.2032,57.25439Z"/><path class="n" d="M302.72712,42.33058c0,.36215-.01262.67-.03624.92368a2.40326,2.40326,0,0,1-.1269.61578,1.03125,1.03125,0,0,1-.21722.36216.46441.46441,0,0,1-.34413.1269,2.21359,2.21359,0,0,1-.76072-.16314q-.43481-.16278-1.01417-.34412-.58-.18063-1.26781-.34413a6.6174,6.6174,0,0,0-1.52144-.163,4.71035,4.71035,0,0,0-1.91983.41659,7.72463,7.72463,0,0,0-1.97408,1.34028,16.86589,16.86589,0,0,0-2.17328,2.44494q-1.14108,1.52152-2.51759,3.731V73.44583a.72442.72442,0,0,1-.45283.68825,2.73922,2.73922,0,0,1-.652.18117,6.45582,6.45582,0,0,1-1.06843.07247,6.178,6.178,0,0,1-1.03238-.07247,3.09509,3.09509,0,0,1-.67023-.18117.644.644,0,0,1-.34412-.28968.878.878,0,0,1-.0905-.39857V40.66438a.8796.8796,0,0,1,.0905-.39856.72832.72832,0,0,1,.34412-.3079,2.08287,2.08287,0,0,1,.634-.181,7.31554,7.31554,0,0,1,.99614-.05444,7.75136,7.75136,0,0,1,1.01418.05444,1.70356,1.70356,0,0,1,.61578.181.75788.75788,0,0,1,.3079.3079.8843.8843,0,0,1,.09049.39856v5.17975a27.83373,27.83373,0,0,1,2.60808-3.33239,12.86891,12.86891,0,0,1,2.282-1.97426,6.9763,6.9763,0,0,1,2.1192-.95992,8.87526,8.87526,0,0,1,2.119-.25345q.47022,0,1.08664.05426a11.87149,11.87149,0,0,1,1.32207.19919,9.661,9.661,0,0,1,1.2678.34413,3.18922,3.18922,0,0,1,.77875.36233,1.08455,1.08455,0,0,1,.28987.28969,1.43515,1.43515,0,0,1,.12672.3261,2.72066,2.72066,0,0,1,.07247.54332C302.72081,41.673,302.72712,41.96824,302.72712,42.33058Z"/><path class="n" d="M335.49883,55.3708a2.05977,2.05977,0,0,1-.68825,1.79292,2.32233,2.32233,0,0,1-1.34028.48906H311.12082a23.376,23.376,0,0,0,.59776,5.50584,10.90756,10.90756,0,0,0,1.97408,4.22,8.87588,8.87588,0,0,0,3.586,2.69857,13.85825,13.85825,0,0,0,5.43338.94171,19.11351,19.11351,0,0,0,4.09329-.39839,23.99828,23.99828,0,0,0,3.13319-.88745q1.322-.48915,2.17346-.88744a3.44753,3.44753,0,0,1,1.21337-.39857.72486.72486,0,0,1,.68825.45283,2.23847,2.23847,0,0,1,.163.59776,6.26594,6.26594,0,0,1,.05444.90547,3.25664,3.25664,0,0,1-.03623.48906,3.92738,3.92738,0,0,1-.09067.43462,1.50158,1.50158,0,0,1-.163.38036,1.89444,1.89444,0,0,1-.28969.36215,5.4911,5.4911,0,0,1-1.12305.634,17.008,17.008,0,0,1-2.46315.90547,32.97437,32.97437,0,0,1-3.53158.81516,24.47132,24.47132,0,0,1-4.32871.36215,18.49634,18.49634,0,0,1-6.73742-1.14108,12.63851,12.63851,0,0,1-4.9263-3.36862,14.77883,14.77883,0,0,1-3.02449-5.524,25.61336,25.61336,0,0,1-1.03238-7.64289,24.14682,24.14682,0,0,1,1.06861-7.46191,15.92827,15.92827,0,0,1,3.06073-5.59634,13.1959,13.1959,0,0,1,4.79957-3.51373,15.592,15.592,0,0,1,6.24836-1.21337,14.67375,14.67375,0,0,1,6.3028,1.23157,12.02761,12.02761,0,0,1,4.2923,3.31436,13.39876,13.39876,0,0,1,2.46314,4.83562,21.20324,21.20324,0,0,1,.77893,5.79572ZM331.04339,54.103q.10871-5.21625-2.39068-8.15016-2.49956-2.93409-7.28074-2.934a9.43813,9.43813,0,0,0-7.48011,3.36862,10.84973,10.84973,0,0,0-1.97409,3.53176,15.1899,15.1899,0,0,0-.797,4.18378Z"/><path class="n" d="M369.20558,40.59192a1.69529,1.69529,0,0,1-.018.23542c-.01244.08491-.02433.163-.03623.23543a2.32049,2.32049,0,0,1-.05444.23543c-.02434.0849-.04867.163-.07229.23542L357.14348,73.44583a1.09836,1.09836,0,0,1-.3261.47085,1.64912,1.64912,0,0,1-.54332.28987,3.326,3.326,0,0,1-.77875.14493q-.45345.0357-1.06861.03624a9.57712,9.57712,0,0,1-1.08664-.05444,4.00606,4.00606,0,0,1-.79695-.163,1.65275,1.65275,0,0,1-.54332-.28987,1.14507,1.14507,0,0,1-.32592-.43462L339.79275,41.53362q-.10869-.28932-.163-.47085a2.45093,2.45093,0,0,1-.07246-.28987,1.08894,1.08894,0,0,1-.018-.181.83324.83324,0,0,1,.10852-.4348.66123.66123,0,0,1,.34413-.27166,2.45515,2.45515,0,0,1,.634-.12673q.398-.03569.97794-.03623a11.61281,11.61281,0,0,1,1.26781.05444,2.98615,2.98615,0,0,1,.74251.163.86167.86167,0,0,1,.39857.28968,2.4594,2.4594,0,0,1,.23542.4348l10.251,28.61588.07246.18116.07247-.18116,10.07-28.61588a1.22293,1.22293,0,0,1,.21722-.4348.98975.98975,0,0,1,.41659-.28968,2.94271,2.94271,0,0,1,.72449-.163,10.25168,10.25168,0,0,1,1.17713-.05444q.57919,0,.95991.03623a1.73318,1.73318,0,0,1,.59776.14493.68945.68945,0,0,1,.3079.27166A.85657.85657,0,0,1,369.20558,40.59192Z"/><path class="n" d="M380.879,29.61646a3.36146,3.36146,0,0,1-.61579,2.35444,3.16215,3.16215,0,0,1-2.24575.61579,3.08957,3.08957,0,0,1-2.19148-.59776,3.3564,3.3564,0,0,1-.59776-2.33624,3.36023,3.36023,0,0,1,.61578-2.35463,3.16443,3.16443,0,0,1,2.24593-.61578,3.092,3.092,0,0,1,2.19149.59776A3.35772,3.35772,0,0,1,380.879,29.61646Zm-.652,43.82937a.72442.72442,0,0,1-.45283.68825,2.73922,2.73922,0,0,1-.652.18117,6.45582,6.45582,0,0,1-1.06843.07247,6.1778,6.1778,0,0,1-1.03238-.07247,3.09509,3.09509,0,0,1-.67023-.18117.644.644,0,0,1-.34413-.28968.878.878,0,0,1-.09049-.39857V40.66438a.8796.8796,0,0,1,.09049-.39856.72835.72835,0,0,1,.34413-.3079,2.1364,2.1364,0,0,1,.67023-.181,8.17328,8.17328,0,0,1,1.03238-.05444,8.5432,8.5432,0,0,1,1.06843.05444,1.93321,1.93321,0,0,1,.652.181.87011.87011,0,0,1,.34413.3079.76114.76114,0,0,1,.1087.39856Z"/><path class="n" d="M417.81974,55.3708a2.05975,2.05975,0,0,1-.68826,1.79292,2.32228,2.32228,0,0,1-1.34027.48906H393.44172a23.37651,23.37651,0,0,0,.59776,5.50584,10.90771,10.90771,0,0,0,1.97409,4.22,8.87588,8.87588,0,0,0,3.586,2.69857,13.85825,13.85825,0,0,0,5.43338.94171,19.11351,19.11351,0,0,0,4.09329-.39839,23.99873,23.99873,0,0,0,3.13319-.88745q1.322-.48915,2.17346-.88744a3.44753,3.44753,0,0,1,1.21337-.39857.72488.72488,0,0,1,.68825.45283,2.23847,2.23847,0,0,1,.163.59776,6.26738,6.26738,0,0,1,.05444.90547,3.25664,3.25664,0,0,1-.03623.48906,3.925,3.925,0,0,1-.09068.43462,1.50087,1.50087,0,0,1-.163.38036,1.89437,1.89437,0,0,1-.28968.36215,5.491,5.491,0,0,1-1.12306.634,17.00733,17.00733,0,0,1-2.46314.90547,32.97493,32.97493,0,0,1-3.53158.81516,24.47144,24.47144,0,0,1-4.32872.36215,18.49638,18.49638,0,0,1-6.73742-1.14108,12.63848,12.63848,0,0,1-4.92629-3.36862,14.77869,14.77869,0,0,1-3.02449-5.524,25.613,25.613,0,0,1-1.03238-7.64289,24.14682,24.14682,0,0,1,1.06861-7.46191,15.92827,15.92827,0,0,1,3.06073-5.59634,13.196,13.196,0,0,1,4.79956-3.51373,15.592,15.592,0,0,1,6.24836-1.21337,14.67372,14.67372,0,0,1,6.3028,1.23157,12.02752,12.02752,0,0,1,4.2923,3.31436,13.39862,13.39862,0,0,1,2.46315,4.83562,21.20362,21.20362,0,0,1,.77893,5.79572ZM413.3643,54.103q.10869-5.21625-2.39068-8.15016-2.49957-2.93409-7.28074-2.934a9.43814,9.43814,0,0,0-7.48012,3.36862,10.84989,10.84989,0,0,0-1.97408,3.53176,15.19028,15.19028,0,0,0-.797,4.18378Z"/><path class="n" d="M469.68282,40.59192a1.87487,1.87487,0,0,1-.05426.41659q-.05435.23578-.12673.52511L459.35938,73.44583a.92186.92186,0,0,1-.27166.47085,1.44922,1.44922,0,0,1-.52529.28987,3.53717,3.53717,0,0,1-.85122.14493q-.52537.0357-1.2496.03624-.76062,0-1.304-.05444a4.50942,4.50942,0,0,1-.88744-.163,1.43115,1.43115,0,0,1-.54332-.28987.91282.91282,0,0,1-.27166-.43462l-7.60684-25.863-.07247-.28969-.07247.28969-7.09957,25.863a.86909.86909,0,0,1-.28987.47085,1.617,1.617,0,0,1-.59758.28987,4.50936,4.50936,0,0,1-.92368.14493q-.54349.0357-1.23157.03624a11.80334,11.80334,0,0,1-1.23157-.05444,4.43609,4.43609,0,0,1-.85122-.163,1.26576,1.26576,0,0,1-.52529-.28987.97706.97706,0,0,1-.25345-.43462l-10.07-31.91221a2.72906,2.72906,0,0,1-.163-.50708,2.11835,2.11835,0,0,1-.05444-.43462.83159.83159,0,0,1,.1087-.4348.66219.66219,0,0,1,.36233-.27166,2.73334,2.73334,0,0,1,.65184-.12673q.3983-.03569.97812-.03623a11.18286,11.18286,0,0,1,1.23158.05444,2.446,2.446,0,0,1,.70628.163.75584.75584,0,0,1,.34412.28968,1.83854,1.83854,0,0,1,.18117.4348l8.65725,28.61588.07246.25363.07229-.25363,7.86047-28.61588a1.43894,1.43894,0,0,1,.1992-.4348.87718.87718,0,0,1,.36215-.28968,2.31291,2.31291,0,0,1,.652-.163,8.54235,8.54235,0,0,1,1.06861-.05444,7.74955,7.74955,0,0,1,1.01418.05444,2.562,2.562,0,0,1,.652.163.74985.74985,0,0,1,.36233.28968,1.839,1.839,0,0,1,.181.4348l8.47626,28.61588.07228.25363.03624-.25363,8.621-28.61588a1.43937,1.43937,0,0,1,.19937-.4348.86376.86376,0,0,1,.38018-.28968,2.6517,2.6517,0,0,1,.70646-.163,10.25187,10.25187,0,0,1,1.17714-.05444q.57918,0,.94188.03623a1.6953,1.6953,0,0,1,.57956.14493.58308.58308,0,0,1,.28968.27166A1.03545,1.03545,0,0,1,469.68282,40.59192Z"/></g></svg>